<svg id="Layer_1" enable-background="new 0 0 256 256" height="512" viewBox="0 0 256 256" width="512" xmlns="http://www.w3.org/2000/svg"><g><path d="m52.531 31.217h149.885v178.065h-149.885z" fill="#63bce7"/><g><path d="m52.531 31.217h9.428v178.065h-9.428z" fill="#6377e7"/></g><g><path d="m192.988 31.217h9.428v178.065h-9.428z" fill="#63e2e7"/></g><g fill="#f8af23"><path d="m104.143 64.637h17.011v36.388h-17.011z"/><path d="m137.714 58.19h17.011v42.835h-17.011z"/><path d="m171.285 51.37h17.011v49.655h-17.011z"/></g><path d="m104.143 195.3h84.153v-87.762zm68.493-15.659h-31.78l31.78-33.143z" fill="#f46275"/><g><path d="m69.943 110.562h21.868v73.804h-21.868z" fill="#f8af23"/><g fill="#f46275"><path d="m91.811 184.366c0 6.039-4.895 10.934-10.934 10.934s-10.934-4.895-10.934-10.934z"/><path d="m69.943 110.562 10.934-17.312 10.934 17.312z"/></g></g><g><g><path d="m80.877 47.579v16.511h-16.512c0 9.119 7.393 16.512 16.512 16.512s16.512-7.393 16.512-16.512-7.393-16.511-16.512-16.511z" fill="#f46275"/><path d="m80.877 47.579c-9.119 0-16.512 7.393-16.512 16.512h16.512z" fill="#f8af23"/></g></g><circle cx="35.75" cy="40.943" fill="#f46275" r="7"/><path d="m218.904 207.903 8.346-8.346-8.346-8.346z" fill="#f46275"/><g fill="#321f7a"><path d="m104.143 113.477h69.347c.828 0 1.5-.672 1.5-1.5s-.672-1.5-1.5-1.5h-69.347c-.828 0-1.5.672-1.5 1.5s.671 1.5 1.5 1.5z"/><path d="m104.143 124.727h58.559c.828 0 1.5-.672 1.5-1.5s-.672-1.5-1.5-1.5h-58.559c-.828 0-1.5.672-1.5 1.5s.671 1.5 1.5 1.5z"/><path d="m104.143 135.977h47.771c.828 0 1.5-.672 1.5-1.5s-.672-1.5-1.5-1.5h-47.771c-.828 0-1.5.672-1.5 1.5s.671 1.5 1.5 1.5z"/><path d="m104.143 147.227h36.984c.828 0 1.5-.672 1.5-1.5s-.672-1.5-1.5-1.5h-36.984c-.828 0-1.5.672-1.5 1.5s.671 1.5 1.5 1.5z"/><path d="m173.195 145.106c-.567-.229-1.217-.089-1.643.354l-31.78 33.143c-.416.434-.532 1.074-.297 1.627.236.553.779.911 1.38.911h31.78c.828 0 1.5-.672 1.5-1.5v-33.143c.001-.612-.371-1.163-.94-1.392zm-2.059 13.313h-7.853l7.853-8.189zm-26.764 19.722 16.034-16.722h10.729v16.722z"/><path d="m178.783 128.766c-.598-.572-1.547-.555-2.121.045l-39.733 41.438c-.573.598-.553 1.548.045 2.121.291.278.664.417 1.038.417.395 0 .788-.154 1.083-.462l39.733-41.438c.573-.598.553-1.548-.045-2.121z"/><path d="m129.897 177.582-3.812 3.975c-.574.598-.554 1.547.044 2.12.29.279.664.418 1.038.418.395 0 .788-.154 1.082-.462l3.812-3.975c.574-.598.554-1.547-.044-2.12-.595-.574-1.547-.555-2.12.044z"/><path d="m80.877 122.663c-.828 0-1.5.672-1.5 1.5v46.602c0 .828.672 1.5 1.5 1.5s1.5-.672 1.5-1.5v-46.602c0-.828-.672-1.5-1.5-1.5z"/><path d="m27.323 223.282h-18.003c-.828 0-1.5.672-1.5 1.5s.672 1.5 1.5 1.5h18.003c.828 0 1.5-.672 1.5-1.5s-.672-1.5-1.5-1.5z"/><path d="m246.68 223.282h-18.003c-.828 0-1.5.672-1.5 1.5s.672 1.5 1.5 1.5h18.003c.828 0 1.5-.672 1.5-1.5s-.672-1.5-1.5-1.5z"/><path d="m218.479 223.282h-180.958c-.828 0-1.5.672-1.5 1.5s.672 1.5 1.5 1.5h180.959c.828 0 1.5-.672 1.5-1.5s-.672-1.5-1.501-1.5z"/><path d="m9.32 210.782h43.21 149.886 44.264c.828 0 1.5-.672 1.5-1.5s-.672-1.5-1.5-1.5h-25.533l7.164-7.165c.586-.586.586-1.535 0-2.121l-8.346-8.346c-.43-.429-1.074-.557-1.635-.325s-.926.779-.926 1.386v6.846h-13.488v-36.638h3.515c11.756 0 21.319-9.563 21.319-21.339 0-11.756-9.563-21.319-21.319-21.319h-3.515v-36.659h3.515c11.756 0 21.319-9.563 21.319-21.34 0-11.755-9.563-21.318-21.319-21.318h-3.515v-8.226c0-.828-.672-1.5-1.5-1.5h-149.886c-.828 0-1.5.672-1.5 1.5v8.226h-6.921c-.712-3.973-4.185-7-8.359-7-4.687 0-8.5 3.813-8.5 8.5s3.813 8.5 8.5 8.5c4.174 0 7.648-3.027 8.359-7h6.921v36.658h-2.461c-11.756 0-21.319 9.563-21.319 21.34 0 11.756 9.563 21.319 21.319 21.319h2.461v36.658h-2.461c-11.756 0-21.319 9.563-21.319 21.319 0 11.755 9.563 21.318 21.319 21.318h2.461v6.726h-41.71c-.828 0-1.5.672-1.5 1.5s.672 1.5 1.5 1.5zm26.43-164.339c-3.032 0-5.5-2.468-5.5-5.5s2.468-5.5 5.5-5.5 5.5 2.468 5.5 5.5-2.468 5.5-5.5 5.5zm184.654 148.389 4.725 4.725-4.725 4.725zm-3 6.225v6.726h-13.488v-6.726zm-9.973-79.296c10.102 0 18.319 8.218 18.319 18.339 0 10.102-8.218 18.319-18.319 18.319h-3.515v-36.658zm0-79.318c10.102 0 18.319 8.218 18.319 18.34 0 10.101-8.218 18.318-18.319 18.318h-3.515v-36.658zm-153.401-1.49c0-.003.001-.006.001-.01s-.001-.006-.001-.01v-8.216h146.886v46.384h-11.12v-27.731c0-.828-.672-1.5-1.5-1.5h-17.011c-.828 0-1.5.672-1.5 1.5v27.731h-13.561v-20.911c0-.828-.672-1.5-1.5-1.5h-17.011c-.828 0-1.5.672-1.5 1.5v20.911h-13.561v-14.463c0-.828-.672-1.5-1.5-1.5h-17.011c-.828 0-1.5.672-1.5 1.5v14.464h-11.833c4.864-3.229 8.08-8.749 8.08-15.012 0-9.932-8.08-18.012-18.012-18.012s-18.012 8.08-18.012 18.012c0 6.262 3.217 11.783 8.08 15.012h-16.914zm118.755 11.917h14.011v46.655h-14.011zm-19.56 6.82v39.835h-14.011v-39.835zm-33.572 6.448v33.388h-14.011v-33.388zm-38.776-.548c.828 0 1.5-.672 1.5-1.5v-14.938c7.576.755 13.512 7.166 13.512 14.938 0 8.277-6.734 15.012-15.012 15.012-7.771 0-14.183-5.936-14.938-13.512zm-14.938-3c.706-7.082 6.355-12.731 13.438-13.438v13.438zm-17.37 56.171c-10.102 0-18.319-8.218-18.319-18.34 0-10.102 8.218-18.319 18.319-18.319h2.461v36.659zm5.461-36.659h48.612v18.924c0 .828.672 1.5 1.5 1.5h17.011c.828 0 1.5-.672 1.5-1.5v-18.924h13.561v18.924c0 .828.672 1.5 1.5 1.5h17.011c.828 0 1.5-.672 1.5-1.5v-18.924h13.561v18.924c0 .828.672 1.5 1.5 1.5h17.011c.828 0 1.5-.672 1.5-1.5v-18.924h11.12v76.317h-11.12v-50.881c0-.612-.372-1.163-.94-1.392-.567-.229-1.218-.09-1.643.354l-49.814 51.95c-.099-.021-.2-.031-.305-.031h-43.784v-47.856c0-.295-.088-.569-.236-.801h.004l-10.933-17.313c-.551-.871-1.986-.871-2.537 0l-10.934 17.312h.004c-.147.232-.236.506-.236.801v47.856h-14.413zm124.597 103.106c-.828 0-1.5.672-1.5 1.5v7.092h-6.529v-3.524c0-.828-.672-1.5-1.5-1.5s-1.5.672-1.5 1.5v3.524h-6.53v-7.092c0-.828-.672-1.5-1.5-1.5s-1.5.672-1.5 1.5v7.092h-6.529v-3.524c0-.828-.672-1.5-1.5-1.5s-1.5.672-1.5 1.5v3.524h-6.529v-7.092c0-.828-.672-1.5-1.5-1.5s-1.5.672-1.5 1.5v7.092h-6.529v-3.416c0-.828-.672-1.5-1.5-1.5s-1.5.672-1.5 1.5v3.416h-6.529v-7.092c0-.828-.672-1.5-1.5-1.5s-1.5.672-1.5 1.5v7.092h-12.291l79.137-82.53v11.539h-7.092c-.828 0-1.5.672-1.5 1.5s.672 1.5 1.5 1.5h7.092v6.529h-3.525c-.828 0-1.5.672-1.5 1.5s.672 1.5 1.5 1.5h3.525v6.53h-7.092c-.828 0-1.5.672-1.5 1.5s.672 1.5 1.5 1.5h7.092v6.529h-3.525c-.828 0-1.5.672-1.5 1.5s.672 1.5 1.5 1.5h3.525v6.529h-7.092c-.828 0-1.5.672-1.5 1.5s.672 1.5 1.5 1.5h7.092v6.529h-3.417c-.828 0-1.5.672-1.5 1.5s.672 1.5 1.5 1.5h3.417v6.529h-7.092c-.828 0-1.5.672-1.5 1.5s.672 1.5 1.5 1.5h7.092v10.816h-6.669v-7.092c-.002-.828-.674-1.5-1.502-1.5zm-105.962-76.146 8.212-13.003 8.212 13.003zm-1.222 3h18.867v70.804h-18.867zm18.748 73.804c-.721 4.491-4.623 7.934-9.314 7.934s-8.594-3.442-9.314-7.934zm-41.622 12.191c-10.102 0-18.319-8.218-18.319-18.319s8.218-18.318 18.319-18.318h2.461v36.638h-2.461zm5.461-36.638h14.413v22.947c0 6.855 5.578 12.434 12.434 12.434s12.434-5.578 12.434-12.434v-22.947h41.241l-31.492 32.843c-.416.434-.532 1.074-.297 1.627.236.553.779.911 1.38.911h84.153c.828 0 1.5-.672 1.5-1.5v-33.881h11.12v46.363h-146.886z"/></g></g></svg>